<svg xmlns="http://www.w3.org/2000/svg" xmlns:xlink="http://www.w3.org/1999/xlink" width="110" height="110" x="0" y="0" enable-background="new -5.713 -2.333 110 110" overflow="visible" version="1.1" viewBox="-5.713 -2.333 110 110" xml:space="preserve"><linearGradient id="SVGID_1_" x1="91.11" x2="61.246" y1="95.467" y2="21.284" gradientTransform="matrix(0.9999 -0.011 0.011 0.9999 -2.8675 -15.1036)" gradientUnits="userSpaceOnUse"><stop offset="0" style="stop-color:#599fd6"/><stop offset=".509" style="stop-color:#b46d99"/><stop offset="1" style="stop-color:#f27868"/></linearGradient><path fill="url(#SVGID_1_)" d="M96.112,38.63c-8.524-1.27-17.523,1.274-24.24,7.685c-11.558,11.027-11.985,29.342-0.959,40.9	L96.112,38.63z"/><linearGradient id="SVGID_2_" x1="94.188" x2="33.18" y1="74.469" y2="28.812" gradientUnits="userSpaceOnUse"><stop offset="0" style="stop-color:#599fd6"/><stop offset=".509" style="stop-color:#b46d99"/><stop offset="1" style="stop-color:#f27868"/></linearGradient><path fill="url(#SVGID_2_)" d="M91.502,20.014c-13.213-2.113-27.224,1.679-37.759,11.521C35.612,48.458,34.642,76.875,51.56,95.012	L91.502,20.014z"/><linearGradient id="SVGID_3_" x1="160.374" x2="-19.079" y1="20.657" y2="73.718" gradientUnits="userSpaceOnUse"><stop offset="0" style="stop-color:#549cd4"/><stop offset=".509" style="stop-color:#b46c99"/><stop offset="1" style="stop-color:#f27968"/></linearGradient><path fill="url(#SVGID_3_)" d="M89.459,0.786C71.042-2.15,51.511,3.128,36.824,16.85c-25.272,23.592-26.624,63.206-3.04,88.485	L89.459,0.786z"/><linearGradient id="SVGID_4_" x1="1.223" x2="16.765" y1="15.373" y2="28.37" gradientUnits="userSpaceOnUse"><stop offset="0" style="stop-color:#a64f6f"/><stop offset="1" style="stop-color:#bc5460"/></linearGradient><path fill="url(#SVGID_4_)" d="M3.012,28.809c-3.278-2.968-3.967-7.853-1.642-11.615c1.296-2.08,3.312-3.536,5.696-4.097	c2.383-0.562,4.844-0.16,6.925,1.13c0.476,0.291,0.926,0.631,1.341,1.001c3.271,2.968,3.955,7.849,1.631,11.612	c-1.293,2.081-3.316,3.54-5.693,4.098c-2.387,0.562-4.847,0.164-6.928-1.125C3.87,29.518,3.419,29.181,3.012,28.809z"/><linearGradient id="SVGID_5_" x1="60.765" x2="76.171" y1="73.249" y2="41.366" gradientUnits="userSpaceOnUse"><stop offset="0" style="stop-color:#7f527e"/><stop offset="1" style="stop-color:#914770"/></linearGradient><path fill="url(#SVGID_5_)" d="M72.006,46.231c-7.549,7.048-10.475,17.197-8.652,26.643L80.47,40.726	C77.432,42.013,74.565,43.846,72.006,46.231z"/><linearGradient id="SVGID_6_" x1="45.126" x2="77.281" y1="41.963" y2="61.926" gradientUnits="userSpaceOnUse"><stop offset="0" style="stop-color:#a24866"/><stop offset="1" style="stop-color:#8f4872"/></linearGradient><path fill="url(#SVGID_6_)" d="M53.744,31.534c-15.088,14.078-18.283,36.117-9.185,53.57l34.812-65.373	C70.104,20.768,61.083,24.682,53.744,31.534z"/></svg>