<svg xmlns="http://www.w3.org/2000/svg" xmlns:xlink="http://www.w3.org/1999/xlink" id="Layer_1" width="1736" height="1246" x="0" y="0" enable-background="new 0 0 1736 1246" version="1.1" viewBox="0 0 1736 1246" xml:space="preserve"><g opacity=".12"><g><g><path fill="none" stroke="#000" stroke-miterlimit="10" d="M-230.529,8.24c0,404.84,0,809.68,0,1214.521" vector-effect="non-scaling-stroke"/><path fill="none" stroke="#000" stroke-miterlimit="10" d="M-200.292,23.352c0,394.765,0,789.531,0,1184.296" vector-effect="non-scaling-stroke"/><path fill="none" stroke="#000" stroke-miterlimit="10" d="M-169.901,38.023c0,384.984,0,769.969,0,1154.953" vector-effect="non-scaling-stroke"/><path fill="none" stroke="#000" stroke-miterlimit="10" d="M-139.359,52.254c0,375.497,0,750.995,0,1126.492" vector-effect="non-scaling-stroke"/><path fill="none" stroke="#000" stroke-miterlimit="10" d="M-109.634,65.619c0,366.587,0,733.175,0,1099.762" vector-effect="non-scaling-stroke"/><path fill="none" stroke="#000" stroke-miterlimit="10" d="M-78.812,78.98c0,357.68,0,715.359,0,1073.039" vector-effect="non-scaling-stroke"/><path fill="none" stroke="#000" stroke-miterlimit="10" d="M-47.853,91.902c0,349.065,0,698.131,0,1047.197" vector-effect="non-scaling-stroke"/><path fill="none" stroke="#000" stroke-miterlimit="10" d="M-16.762,104.382c0,340.745,0,681.491,0,1022.236" vector-effect="non-scaling-stroke"/><path fill="none" stroke="#000" stroke-miterlimit="10" d="M14.457,116.42c0,332.72,0,665.439,0,998.159" vector-effect="non-scaling-stroke"/><path fill="none" stroke="#000" stroke-miterlimit="10" d="M44.816,127.663c0,325.225,0,650.45,0,975.674" vector-effect="non-scaling-stroke"/><path fill="none" stroke="#000" stroke-miterlimit="10" d="M76.271,138.833c0,317.778,0,635.555,0,953.333" vector-effect="non-scaling-stroke"/><path fill="none" stroke="#000" stroke-miterlimit="10" d="M107.839,149.563c0,310.625,0,621.25,0,931.875" vector-effect="non-scaling-stroke"/><path fill="none" stroke="#000" stroke-miterlimit="10" d="M139.517,159.852c0,303.766,0,607.531,0,911.297" vector-effect="non-scaling-stroke"/><path fill="none" stroke="#000" stroke-miterlimit="10" d="M170.304,169.398c0,297.401,0,594.803,0,892.205" vector-effect="non-scaling-stroke"/><path fill="none" stroke="#000" stroke-miterlimit="10" d="M202.183,178.818c0,291.121,0,582.242,0,873.363" vector-effect="non-scaling-stroke"/><path fill="none" stroke="#000" stroke-miterlimit="10" d="M234.156,187.797c0,285.135,0,570.27,0,855.406" vector-effect="non-scaling-stroke"/><path fill="none" stroke="#000" stroke-miterlimit="10" d="M266.221,196.335c0,279.443,0,558.886,0,838.329" vector-effect="non-scaling-stroke"/><path fill="none" stroke="#000" stroke-miterlimit="10" d="M298.373,204.433c0,274.045,0,548.09,0,822.135" vector-effect="non-scaling-stroke"/><path fill="none" stroke="#000" stroke-miterlimit="10" d="M329.597,211.856c0,269.096,0,538.191,0,807.287" vector-effect="non-scaling-stroke"/><path fill="none" stroke="#000" stroke-miterlimit="10" d="M361.904,219.085c0,264.277,0,528.554,0,792.83" vector-effect="non-scaling-stroke"/><path fill="none" stroke="#000" stroke-miterlimit="10" d="M394.285,225.873c0,259.751,0,519.503,0,779.254" vector-effect="non-scaling-stroke"/><path fill="none" stroke="#000" stroke-miterlimit="10" d="M426.733,232.22c0,255.52,0,511.04,0,766.561" vector-effect="non-scaling-stroke"/><path fill="none" stroke="#000" stroke-miterlimit="10" d="M458.228,237.948c0,251.702,0,503.403,0,755.105" vector-effect="non-scaling-stroke"/><path fill="none" stroke="#000" stroke-miterlimit="10" d="M490.797,243.426c0,248.049,0,496.098,0,744.148" vector-effect="non-scaling-stroke"/><path fill="none" stroke="#000" stroke-miterlimit="10" d="M523.421,248.463c0,244.691,0,489.382,0,734.073" vector-effect="non-scaling-stroke"/><path fill="none" stroke="#000" stroke-miterlimit="10" d="M556.095,253.06c0,241.626,0,483.253,0,724.88" vector-effect="non-scaling-stroke"/><path fill="none" stroke="#000" stroke-miterlimit="10" d="M588.813,257.215c0,238.856,0,477.713,0,716.57" vector-effect="non-scaling-stroke"/><path fill="none" stroke="#000" stroke-miterlimit="10" d="M620.549,260.82c0,236.453,0,472.906,0,709.359" vector-effect="non-scaling-stroke"/><path fill="none" stroke="#000" stroke-miterlimit="10" d="M653.344,264.107c0,234.262,0,468.523,0,702.785" vector-effect="non-scaling-stroke"/><path fill="none" stroke="#000" stroke-miterlimit="10" d="M686.171,266.954c0,232.364,0,464.729,0,697.093" vector-effect="non-scaling-stroke"/><path fill="none" stroke="#000" stroke-miterlimit="10" d="M719.025,269.358c0,230.761,0,461.522,0,692.283" vector-effect="non-scaling-stroke"/><path fill="none" stroke="#000" stroke-miterlimit="10" d="M750.874,271.268c0,229.488,0,458.977,0,688.465" vector-effect="non-scaling-stroke"/><path fill="none" stroke="#000" stroke-miterlimit="10" d="M783.768,272.805c0,228.463,0,456.927,0,685.391" vector-effect="non-scaling-stroke"/><path fill="none" stroke="#000" stroke-miterlimit="10" d="M816.676,273.9c0,227.733,0,455.466,0,683.199" vector-effect="non-scaling-stroke"/><path fill="none" stroke="#000" stroke-miterlimit="10" d="M849.593,274.555c0,227.297,0,454.594,0,681.891" vector-effect="non-scaling-stroke"/><path fill="none" stroke="#000" stroke-miterlimit="10" d="M881.485,274.769c0,227.154,0,454.309,0,681.463" vector-effect="non-scaling-stroke"/><path fill="none" stroke="#000" stroke-miterlimit="10" d="M914.407,274.555c0,227.297,0,454.594,0,681.891" vector-effect="non-scaling-stroke"/><path fill="none" stroke="#000" stroke-miterlimit="10" d="M947.324,273.9c0,227.733,0,455.466,0,683.199" vector-effect="non-scaling-stroke"/><path fill="none" stroke="#000" stroke-miterlimit="10" d="M980.231,272.805c0,228.463,0,456.927,0,685.391" vector-effect="non-scaling-stroke"/><path fill="none" stroke="#000" stroke-miterlimit="10" d="M1013.126,271.268c0,229.488,0,458.977,0,688.465" vector-effect="non-scaling-stroke"/><path fill="none" stroke="#000" stroke-miterlimit="10" d="M1044.976,269.358c0,230.761,0,461.522,0,692.283" vector-effect="non-scaling-stroke"/><path fill="none" stroke="#000" stroke-miterlimit="10" d="M1077.829,266.954c0,232.364,0,464.729,0,697.093" vector-effect="non-scaling-stroke"/><path fill="none" stroke="#000" stroke-miterlimit="10" d="M1110.656,264.107c0,234.262,0,468.523,0,702.785" vector-effect="non-scaling-stroke"/><path fill="none" stroke="#000" stroke-miterlimit="10" d="M1143.451,260.82c0,236.453,0,472.906,0,709.359" vector-effect="non-scaling-stroke"/><path fill="none" stroke="#000" stroke-miterlimit="10" d="M1175.187,257.215c0,238.856,0,477.713,0,716.57" vector-effect="non-scaling-stroke"/><path fill="none" stroke="#000" stroke-miterlimit="10" d="M1207.905,253.06c0,241.626,0,483.253,0,724.88" vector-effect="non-scaling-stroke"/><path fill="none" stroke="#000" stroke-miterlimit="10" d="M1240.579,248.463c0,244.691,0,489.382,0,734.073" vector-effect="non-scaling-stroke"/><path fill="none" stroke="#000" stroke-miterlimit="10" d="M1273.203,243.426c0,248.049,0,496.098,0,744.148" vector-effect="non-scaling-stroke"/><path fill="none" stroke="#000" stroke-miterlimit="10" d="M1305.771,237.948c0,251.702,0,503.403,0,755.105" vector-effect="non-scaling-stroke"/><path fill="none" stroke="#000" stroke-miterlimit="10" d="M1337.267,232.22c0,255.52,0,511.04,0,766.561" vector-effect="non-scaling-stroke"/><path fill="none" stroke="#000" stroke-miterlimit="10" d="M1369.715,225.873c0,259.751,0,519.503,0,779.254" vector-effect="non-scaling-stroke"/><path fill="none" stroke="#000" stroke-miterlimit="10" d="M1402.096,219.085c0,264.277,0,528.554,0,792.83" vector-effect="non-scaling-stroke"/><path fill="none" stroke="#000" stroke-miterlimit="10" d="M1434.403,211.856c0,269.096,0,538.191,0,807.287" vector-effect="non-scaling-stroke"/><path fill="none" stroke="#000" stroke-miterlimit="10" d="M1465.628,204.433c0,274.045,0,548.09,0,822.135" vector-effect="non-scaling-stroke"/><path fill="none" stroke="#000" stroke-miterlimit="10" d="M1497.778,196.335c0,279.443,0,558.886,0,838.329" vector-effect="non-scaling-stroke"/><path fill="none" stroke="#000" stroke-miterlimit="10" d="M1529.844,187.797c0,285.135,0,570.27,0,855.406" vector-effect="non-scaling-stroke"/><path fill="none" stroke="#000" stroke-miterlimit="10" d="M1561.817,178.818c0,291.121,0,582.242,0,873.363" vector-effect="non-scaling-stroke"/><path fill="none" stroke="#000" stroke-miterlimit="10" d="M1593.696,169.398c0,297.401,0,594.803,0,892.205" vector-effect="non-scaling-stroke"/><path fill="none" stroke="#000" stroke-miterlimit="10" d="M1624.483,159.852c0,303.766,0,607.531,0,911.297" vector-effect="non-scaling-stroke"/><path fill="none" stroke="#000" stroke-miterlimit="10" d="M1656.161,149.563c0,310.625,0,621.25,0,931.875" vector-effect="non-scaling-stroke"/><path fill="none" stroke="#000" stroke-miterlimit="10" d="M1687.729,138.833c0,317.778,0,635.555,0,953.333" vector-effect="non-scaling-stroke"/><path fill="none" stroke="#000" stroke-miterlimit="10" d="M1719.185,127.663c-0.001,325.225-0.001,650.45,0,975.674" vector-effect="non-scaling-stroke"/><path fill="none" stroke="#000" stroke-miterlimit="10" d="M1749.543,116.42c0,332.72,0,665.439,0,998.159" vector-effect="non-scaling-stroke"/><path fill="none" stroke="#000" stroke-miterlimit="10" d="M1780.762,104.382c0,340.745,0,681.491,0,1022.236" vector-effect="non-scaling-stroke"/><path fill="none" stroke="#000" stroke-miterlimit="10" d="M1811.853,91.902c0,349.065,0,698.131,0,1047.197" vector-effect="non-scaling-stroke"/><path fill="none" stroke="#000" stroke-miterlimit="10" d="M1842.812,78.98c0,357.68,0,715.359,0,1073.039" vector-effect="non-scaling-stroke"/><path fill="none" stroke="#000" stroke-miterlimit="10" d="M1873.635,65.619c0,366.587,0,733.175,0,1099.762" vector-effect="non-scaling-stroke"/><path fill="none" stroke="#000" stroke-miterlimit="10" d="M1903.359,52.254c0,375.497,0,750.995,0,1126.492" vector-effect="non-scaling-stroke"/><path fill="none" stroke="#000" stroke-miterlimit="10" d="M1933.9,38.023c0,384.984,0,769.969,0,1154.953" vector-effect="non-scaling-stroke"/><path fill="none" stroke="#000" stroke-miterlimit="10" d="M1964.292,23.352c0,394.765,0,789.531,0,1184.296" vector-effect="non-scaling-stroke"/><path fill="none" stroke="#000" stroke-miterlimit="10" d="M1994.529,8.24c0,404.84,0,809.68,0,1214.521" vector-effect="non-scaling-stroke"/></g><g><path fill="none" stroke="#000" stroke-miterlimit="10" d="M1995,7.5c-699.232,355.984-1526.767,355.984-2226,0" vector-effect="non-scaling-stroke"/><path fill="none" stroke="#000" stroke-miterlimit="10" d="M1995,39.5c-699.232,337.248-1526.767,337.248-2226,0" vector-effect="non-scaling-stroke"/><path fill="none" stroke="#000" stroke-miterlimit="10" d="M1995,71.5c-699.232,318.512-1526.767,318.512-2226,0" vector-effect="non-scaling-stroke"/><path fill="none" stroke="#000" stroke-miterlimit="10" d="M1995,103.5c-699.232,299.776-1526.767,299.776-2226,0" vector-effect="non-scaling-stroke"/><path fill="none" stroke="#000" stroke-miterlimit="10" d="M1995,135.5c-699.232,281.04-1526.767,281.04-2226,0" vector-effect="non-scaling-stroke"/><path fill="none" stroke="#000" stroke-miterlimit="10" d="M1995,167.5c-699.232,262.304-1526.767,262.304-2226,0" vector-effect="non-scaling-stroke"/><path fill="none" stroke="#000" stroke-miterlimit="10" d="M1995,199.5c-699.232,243.568-1526.767,243.568-2226,0" vector-effect="non-scaling-stroke"/><path fill="none" stroke="#000" stroke-miterlimit="10" d="M1995,231.5c-699.232,224.832-1526.767,224.832-2226,0" vector-effect="non-scaling-stroke"/><path fill="none" stroke="#000" stroke-miterlimit="10" d="M1995,263.5c-699.232,206.096-1526.767,206.096-2226,0" vector-effect="non-scaling-stroke"/><path fill="none" stroke="#000" stroke-miterlimit="10" d="M1995,295.5c-699.232,187.36-1526.767,187.36-2226,0" vector-effect="non-scaling-stroke"/><path fill="none" stroke="#000" stroke-miterlimit="10" d="M1995,327.5c-699.232,168.624-1526.767,168.624-2226,0" vector-effect="non-scaling-stroke"/><path fill="none" stroke="#000" stroke-miterlimit="10" d="M1995,359.5c-699.232,149.888-1526.767,149.888-2226,0" vector-effect="non-scaling-stroke"/><path fill="none" stroke="#000" stroke-miterlimit="10" d="M1995,391.5c-699.232,131.152-1526.767,131.152-2226,0" vector-effect="non-scaling-stroke"/><path fill="none" stroke="#000" stroke-miterlimit="10" d="M1995,423.5c-699.232,112.416-1526.767,112.416-2226,0" vector-effect="non-scaling-stroke"/><path fill="none" stroke="#000" stroke-miterlimit="10" d="M1995,455.5c-699.232,93.68-1526.767,93.68-2226,0" vector-effect="non-scaling-stroke"/><path fill="none" stroke="#000" stroke-miterlimit="10" d="M1995,487.5c-699.232,74.944-1526.767,74.944-2226,0" vector-effect="non-scaling-stroke"/><path fill="none" stroke="#000" stroke-miterlimit="10" d="M1995,519.5c-699.232,56.208-1526.767,56.208-2226,0" vector-effect="non-scaling-stroke"/><path fill="none" stroke="#000" stroke-miterlimit="10" d="M1995,551.5c-699.232,37.472-1526.767,37.472-2226,0" vector-effect="non-scaling-stroke"/><path fill="none" stroke="#000" stroke-miterlimit="10" d="M1995,583.5c-699.232,18.736-1526.767,18.736-2226,0" vector-effect="non-scaling-stroke"/><path fill="none" stroke="#000" stroke-miterlimit="10" d="M1995,615.5c-699.232,0-1526.767,0-2226,0" vector-effect="non-scaling-stroke"/><path fill="none" stroke="#000" stroke-miterlimit="10" d="M1995,647.5c-699.232-18.736-1526.767-18.736-2226,0" vector-effect="non-scaling-stroke"/><path fill="none" stroke="#000" stroke-miterlimit="10" d="M1995,679.5c-699.232-37.472-1526.767-37.472-2226,0" vector-effect="non-scaling-stroke"/><path fill="none" stroke="#000" stroke-miterlimit="10" d="M1995,711.5c-699.232-56.208-1526.767-56.208-2226,0" vector-effect="non-scaling-stroke"/><path fill="none" stroke="#000" stroke-miterlimit="10" d="M1995,743.5c-699.232-74.944-1526.767-74.944-2226,0" vector-effect="non-scaling-stroke"/><path fill="none" stroke="#000" stroke-miterlimit="10" d="M1995,775.5c-699.232-93.68-1526.767-93.68-2226,0" vector-effect="non-scaling-stroke"/><path fill="none" stroke="#000" stroke-miterlimit="10" d="M1995,807.5c-699.232-112.416-1526.767-112.416-2226,0" vector-effect="non-scaling-stroke"/><path fill="none" stroke="#000" stroke-miterlimit="10" d="M1995,839.5c-699.232-131.152-1526.767-131.152-2226,0" vector-effect="non-scaling-stroke"/><path fill="none" stroke="#000" stroke-miterlimit="10" d="M1995,871.5c-699.232-149.888-1526.767-149.888-2226,0" vector-effect="non-scaling-stroke"/><path fill="none" stroke="#000" stroke-miterlimit="10" d="M1995,903.5c-699.232-168.624-1526.767-168.624-2226,0" vector-effect="non-scaling-stroke"/><path fill="none" stroke="#000" stroke-miterlimit="10" d="M1995,935.5c-699.232-187.36-1526.767-187.36-2226,0" vector-effect="non-scaling-stroke"/><path fill="none" stroke="#000" stroke-miterlimit="10" d="M1995,967.5c-699.232-206.096-1526.767-206.096-2226,0" vector-effect="non-scaling-stroke"/><path fill="none" stroke="#000" stroke-miterlimit="10" d="M1995,999.5c-699.232-224.832-1526.767-224.832-2226,0" vector-effect="non-scaling-stroke"/><path fill="none" stroke="#000" stroke-miterlimit="10" d="M1995,1031.5c-699.232-243.568-1526.767-243.568-2226,0" vector-effect="non-scaling-stroke"/><path fill="none" stroke="#000" stroke-miterlimit="10" d="M1995,1063.5c-699.232-262.304-1526.767-262.304-2226,0" vector-effect="non-scaling-stroke"/><path fill="none" stroke="#000" stroke-miterlimit="10" d="M1995,1095.5c-699.232-281.04-1526.767-281.04-2226,0" vector-effect="non-scaling-stroke"/><path fill="none" stroke="#000" stroke-miterlimit="10" d="M1995,1127.5c-699.232-299.776-1526.767-299.776-2226,0" vector-effect="non-scaling-stroke"/><path fill="none" stroke="#000" stroke-miterlimit="10" d="M1995,1159.5c-699.232-318.512-1526.767-318.512-2226,0" vector-effect="non-scaling-stroke"/><path fill="none" stroke="#000" stroke-miterlimit="10" d="M1995,1191.5c-699.232-337.248-1526.767-337.248-2226,0" vector-effect="non-scaling-stroke"/><path fill="none" stroke="#000" stroke-miterlimit="10" d="M1995,1223.5c-699.232-355.984-1526.767-355.984-2226,0" vector-effect="non-scaling-stroke"/></g></g></g><g display="none"><g display="inline"><line x1="-230.5" x2="-230.5" y1="8" y2="1223" fill="none" stroke="#000" stroke-miterlimit="10" vector-effect="non-scaling-stroke"/><line x1="-198.5" x2="-198.5" y1="8" y2="1223" fill="none" stroke="#000" stroke-miterlimit="10" vector-effect="non-scaling-stroke"/><line x1="-166.5" x2="-166.5" y1="8" y2="1223" fill="none" stroke="#000" stroke-miterlimit="10" vector-effect="non-scaling-stroke"/><line x1="-134.5" x2="-134.5" y1="8" y2="1223" fill="none" stroke="#000" stroke-miterlimit="10" vector-effect="non-scaling-stroke"/><line x1="-103.5" x2="-103.5" y1="8" y2="1223" fill="none" stroke="#000" stroke-miterlimit="10" vector-effect="non-scaling-stroke"/><line x1="-71.5" x2="-71.5" y1="8" y2="1223" fill="none" stroke="#000" stroke-miterlimit="10" vector-effect="non-scaling-stroke"/><line x1="-39.5" x2="-39.5" y1="8" y2="1223" fill="none" stroke="#000" stroke-miterlimit="10" vector-effect="non-scaling-stroke"/><line x1="-7.5" x2="-7.5" y1="8" y2="1223" fill="none" stroke="#000" stroke-miterlimit="10" vector-effect="non-scaling-stroke"/><line x1="24.5" x2="24.5" y1="8" y2="1223" fill="none" stroke="#000" stroke-miterlimit="10" vector-effect="non-scaling-stroke"/><line x1="55.5" x2="55.5" y1="8" y2="1223" fill="none" stroke="#000" stroke-miterlimit="10" vector-effect="non-scaling-stroke"/><line x1="87.5" x2="87.5" y1="8" y2="1223" fill="none" stroke="#000" stroke-miterlimit="10" vector-effect="non-scaling-stroke"/><line x1="119.5" x2="119.5" y1="8" y2="1223" fill="none" stroke="#000" stroke-miterlimit="10" vector-effect="non-scaling-stroke"/><line x1="151.5" x2="151.5" y1="8" y2="1223" fill="none" stroke="#000" stroke-miterlimit="10" vector-effect="non-scaling-stroke"/><line x1="182.5" x2="182.5" y1="8" y2="1223" fill="none" stroke="#000" stroke-miterlimit="10" vector-effect="non-scaling-stroke"/><line x1="214.5" x2="214.5" y1="8" y2="1223" fill="none" stroke="#000" stroke-miterlimit="10" vector-effect="non-scaling-stroke"/><line x1="246.5" x2="246.5" y1="8" y2="1223" fill="none" stroke="#000" stroke-miterlimit="10" vector-effect="non-scaling-stroke"/><line x1="278.5" x2="278.5" y1="8" y2="1223" fill="none" stroke="#000" stroke-miterlimit="10" vector-effect="non-scaling-stroke"/><line x1="310.5" x2="310.5" y1="8" y2="1223" fill="none" stroke="#000" stroke-miterlimit="10" vector-effect="non-scaling-stroke"/><line x1="341.5" x2="341.5" y1="8" y2="1223" fill="none" stroke="#000" stroke-miterlimit="10" vector-effect="non-scaling-stroke"/><line x1="373.5" x2="373.5" y1="8" y2="1223" fill="none" stroke="#000" stroke-miterlimit="10" vector-effect="non-scaling-stroke"/><line x1="405.5" x2="405.5" y1="8" y2="1223" fill="none" stroke="#000" stroke-miterlimit="10" vector-effect="non-scaling-stroke"/><line x1="437.5" x2="437.5" y1="8" y2="1223" fill="none" stroke="#000" stroke-miterlimit="10" vector-effect="non-scaling-stroke"/><line x1="468.5" x2="468.5" y1="8" y2="1223" fill="none" stroke="#000" stroke-miterlimit="10" vector-effect="non-scaling-stroke"/><line x1="500.5" x2="500.5" y1="8" y2="1223" fill="none" stroke="#000" stroke-miterlimit="10" vector-effect="non-scaling-stroke"/><line x1="532.5" x2="532.5" y1="8" y2="1223" fill="none" stroke="#000" stroke-miterlimit="10" vector-effect="non-scaling-stroke"/><line x1="564.5" x2="564.5" y1="8" y2="1223" fill="none" stroke="#000" stroke-miterlimit="10" vector-effect="non-scaling-stroke"/><line x1="596.5" x2="596.5" y1="8" y2="1223" fill="none" stroke="#000" stroke-miterlimit="10" vector-effect="non-scaling-stroke"/><line x1="627.5" x2="627.5" y1="8" y2="1223" fill="none" stroke="#000" stroke-miterlimit="10" vector-effect="non-scaling-stroke"/><line x1="659.5" x2="659.5" y1="8" y2="1223" fill="none" stroke="#000" stroke-miterlimit="10" vector-effect="non-scaling-stroke"/><line x1="691.5" x2="691.5" y1="8" y2="1223" fill="none" stroke="#000" stroke-miterlimit="10" vector-effect="non-scaling-stroke"/><line x1="723.5" x2="723.5" y1="8" y2="1223" fill="none" stroke="#000" stroke-miterlimit="10" vector-effect="non-scaling-stroke"/><line x1="754.5" x2="754.5" y1="8" y2="1223" fill="none" stroke="#000" stroke-miterlimit="10" vector-effect="non-scaling-stroke"/><line x1="786.5" x2="786.5" y1="8" y2="1223" fill="none" stroke="#000" stroke-miterlimit="10" vector-effect="non-scaling-stroke"/><line x1="818.5" x2="818.5" y1="8" y2="1223" fill="none" stroke="#000" stroke-miterlimit="10" vector-effect="non-scaling-stroke"/><line x1="850.5" x2="850.5" y1="8" y2="1223" fill="none" stroke="#000" stroke-miterlimit="10" vector-effect="non-scaling-stroke"/><line x1="881.5" x2="881.5" y1="8" y2="1223" fill="none" stroke="#000" stroke-miterlimit="10" vector-effect="non-scaling-stroke"/><line x1="913.5" x2="913.5" y1="8" y2="1223" fill="none" stroke="#000" stroke-miterlimit="10" vector-effect="non-scaling-stroke"/><line x1="945.5" x2="945.5" y1="8" y2="1223" fill="none" stroke="#000" stroke-miterlimit="10" vector-effect="non-scaling-stroke"/><line x1="977.5" x2="977.5" y1="8" y2="1223" fill="none" stroke="#000" stroke-miterlimit="10" vector-effect="non-scaling-stroke"/><line x1="1009.5" x2="1009.5" y1="8" y2="1223" fill="none" stroke="#000" stroke-miterlimit="10" vector-effect="non-scaling-stroke"/><line x1="1040.5" x2="1040.5" y1="8" y2="1223" fill="none" stroke="#000" stroke-miterlimit="10" vector-effect="non-scaling-stroke"/><line x1="1072.5" x2="1072.5" y1="8" y2="1223" fill="none" stroke="#000" stroke-miterlimit="10" vector-effect="non-scaling-stroke"/><line x1="1104.5" x2="1104.5" y1="8" y2="1223" fill="none" stroke="#000" stroke-miterlimit="10" vector-effect="non-scaling-stroke"/><line x1="1136.5" x2="1136.5" y1="8" y2="1223" fill="none" stroke="#000" stroke-miterlimit="10" vector-effect="non-scaling-stroke"/><line x1="1167.5" x2="1167.5" y1="8" y2="1223" fill="none" stroke="#000" stroke-miterlimit="10" vector-effect="non-scaling-stroke"/><line x1="1199.5" x2="1199.5" y1="8" y2="1223" fill="none" stroke="#000" stroke-miterlimit="10" vector-effect="non-scaling-stroke"/><line x1="1231.5" x2="1231.5" y1="8" y2="1223" fill="none" stroke="#000" stroke-miterlimit="10" vector-effect="non-scaling-stroke"/><line x1="1263.5" x2="1263.5" y1="8" y2="1223" fill="none" stroke="#000" stroke-miterlimit="10" vector-effect="non-scaling-stroke"/><line x1="1295.5" x2="1295.5" y1="8" y2="1223" fill="none" stroke="#000" stroke-miterlimit="10" vector-effect="non-scaling-stroke"/><line x1="1326.5" x2="1326.5" y1="8" y2="1223" fill="none" stroke="#000" stroke-miterlimit="10" vector-effect="non-scaling-stroke"/><line x1="1358.5" x2="1358.5" y1="8" y2="1223" fill="none" stroke="#000" stroke-miterlimit="10" vector-effect="non-scaling-stroke"/><line x1="1390.5" x2="1390.5" y1="8" y2="1223" fill="none" stroke="#000" stroke-miterlimit="10" vector-effect="non-scaling-stroke"/><line x1="1422.5" x2="1422.5" y1="8" y2="1223" fill="none" stroke="#000" stroke-miterlimit="10" vector-effect="non-scaling-stroke"/><line x1="1453.5" x2="1453.5" y1="8" y2="1223" fill="none" stroke="#000" stroke-miterlimit="10" vector-effect="non-scaling-stroke"/><line x1="1485.5" x2="1485.5" y1="8" y2="1223" fill="none" stroke="#000" stroke-miterlimit="10" vector-effect="non-scaling-stroke"/><line x1="1517.5" x2="1517.5" y1="8" y2="1223" fill="none" stroke="#000" stroke-miterlimit="10" vector-effect="non-scaling-stroke"/><line x1="1549.5" x2="1549.5" y1="8" y2="1223" fill="none" stroke="#000" stroke-miterlimit="10" vector-effect="non-scaling-stroke"/><line x1="1581.5" x2="1581.5" y1="8" y2="1223" fill="none" stroke="#000" stroke-miterlimit="10" vector-effect="non-scaling-stroke"/><line x1="1612.5" x2="1612.5" y1="8" y2="1223" fill="none" stroke="#000" stroke-miterlimit="10" vector-effect="non-scaling-stroke"/><line x1="1644.5" x2="1644.5" y1="8" y2="1223" fill="none" stroke="#000" stroke-miterlimit="10" vector-effect="non-scaling-stroke"/><line x1="1676.5" x2="1676.5" y1="8" y2="1223" fill="none" stroke="#000" stroke-miterlimit="10" vector-effect="non-scaling-stroke"/><line x1="1708.5" x2="1708.5" y1="8" y2="1223" fill="none" stroke="#000" stroke-miterlimit="10" vector-effect="non-scaling-stroke"/><line x1="1739.5" x2="1739.5" y1="8" y2="1223" fill="none" stroke="#000" stroke-miterlimit="10" vector-effect="non-scaling-stroke"/><line x1="1771.5" x2="1771.5" y1="8" y2="1223" fill="none" stroke="#000" stroke-miterlimit="10" vector-effect="non-scaling-stroke"/><line x1="1803.5" x2="1803.5" y1="8" y2="1223" fill="none" stroke="#000" stroke-miterlimit="10" vector-effect="non-scaling-stroke"/><line x1="1835.5" x2="1835.5" y1="8" y2="1223" fill="none" stroke="#000" stroke-miterlimit="10" vector-effect="non-scaling-stroke"/><line x1="1867.5" x2="1867.5" y1="8" y2="1223" fill="none" stroke="#000" stroke-miterlimit="10" vector-effect="non-scaling-stroke"/><line x1="1898.5" x2="1898.5" y1="8" y2="1223" fill="none" stroke="#000" stroke-miterlimit="10" vector-effect="non-scaling-stroke"/><line x1="1930.5" x2="1930.5" y1="8" y2="1223" fill="none" stroke="#000" stroke-miterlimit="10" vector-effect="non-scaling-stroke"/><line x1="1962.5" x2="1962.5" y1="8" y2="1223" fill="none" stroke="#000" stroke-miterlimit="10" vector-effect="non-scaling-stroke"/><line x1="1994.5" x2="1994.5" y1="8" y2="1223" fill="none" stroke="#000" stroke-miterlimit="10" vector-effect="non-scaling-stroke"/></g><g display="inline"><line x1="1995" x2="-231" y1="7.5" y2="7.5" fill="none" stroke="#000" stroke-miterlimit="10" vector-effect="non-scaling-stroke"/><line x1="1995" x2="-231" y1="39.5" y2="39.5" fill="none" stroke="#000" stroke-miterlimit="10" vector-effect="non-scaling-stroke"/><line x1="1995" x2="-231" y1="71.5" y2="71.5" fill="none" stroke="#000" stroke-miterlimit="10" vector-effect="non-scaling-stroke"/><line x1="1995" x2="-231" y1="103.5" y2="103.5" fill="none" stroke="#000" stroke-miterlimit="10" vector-effect="non-scaling-stroke"/><line x1="1995" x2="-231" y1="135.5" y2="135.5" fill="none" stroke="#000" stroke-miterlimit="10" vector-effect="non-scaling-stroke"/><line x1="1995" x2="-231" y1="167.5" y2="167.5" fill="none" stroke="#000" stroke-miterlimit="10" vector-effect="non-scaling-stroke"/><line x1="1995" x2="-231" y1="199.5" y2="199.5" fill="none" stroke="#000" stroke-miterlimit="10" vector-effect="non-scaling-stroke"/><line x1="1995" x2="-231" y1="231.5" y2="231.5" fill="none" stroke="#000" stroke-miterlimit="10" vector-effect="non-scaling-stroke"/><line x1="1995" x2="-231" y1="263.5" y2="263.5" fill="none" stroke="#000" stroke-miterlimit="10" vector-effect="non-scaling-stroke"/><line x1="1995" x2="-231" y1="295.5" y2="295.5" fill="none" stroke="#000" stroke-miterlimit="10" vector-effect="non-scaling-stroke"/><line x1="1995" x2="-231" y1="327.5" y2="327.5" fill="none" stroke="#000" stroke-miterlimit="10" vector-effect="non-scaling-stroke"/><line x1="1995" x2="-231" y1="359.5" y2="359.5" fill="none" stroke="#000" stroke-miterlimit="10" vector-effect="non-scaling-stroke"/><line x1="1995" x2="-231" y1="391.5" y2="391.5" fill="none" stroke="#000" stroke-miterlimit="10" vector-effect="non-scaling-stroke"/><line x1="1995" x2="-231" y1="423.5" y2="423.5" fill="none" stroke="#000" stroke-miterlimit="10" vector-effect="non-scaling-stroke"/><line x1="1995" x2="-231" y1="455.5" y2="455.5" fill="none" stroke="#000" stroke-miterlimit="10" vector-effect="non-scaling-stroke"/><line x1="1995" x2="-231" y1="487.5" y2="487.5" fill="none" stroke="#000" stroke-miterlimit="10" vector-effect="non-scaling-stroke"/><line x1="1995" x2="-231" y1="519.5" y2="519.5" fill="none" stroke="#000" stroke-miterlimit="10" vector-effect="non-scaling-stroke"/><line x1="1995" x2="-231" y1="551.5" y2="551.5" fill="none" stroke="#000" stroke-miterlimit="10" vector-effect="non-scaling-stroke"/><line x1="1995" x2="-231" y1="583.5" y2="583.5" fill="none" stroke="#000" stroke-miterlimit="10" vector-effect="non-scaling-stroke"/><line x1="1995" x2="-231" y1="615.5" y2="615.5" fill="none" stroke="#000" stroke-miterlimit="10" vector-effect="non-scaling-stroke"/><line x1="1995" x2="-231" y1="647.5" y2="647.5" fill="none" stroke="#000" stroke-miterlimit="10" vector-effect="non-scaling-stroke"/><line x1="1995" x2="-231" y1="679.5" y2="679.5" fill="none" stroke="#000" stroke-miterlimit="10" vector-effect="non-scaling-stroke"/><line x1="1995" x2="-231" y1="711.5" y2="711.5" fill="none" stroke="#000" stroke-miterlimit="10" vector-effect="non-scaling-stroke"/><line x1="1995" x2="-231" y1="743.5" y2="743.5" fill="none" stroke="#000" stroke-miterlimit="10" vector-effect="non-scaling-stroke"/><line x1="1995" x2="-231" y1="775.5" y2="775.5" fill="none" stroke="#000" stroke-miterlimit="10" vector-effect="non-scaling-stroke"/><line x1="1995" x2="-231" y1="807.5" y2="807.5" fill="none" stroke="#000" stroke-miterlimit="10" vector-effect="non-scaling-stroke"/><line x1="1995" x2="-231" y1="839.5" y2="839.5" fill="none" stroke="#000" stroke-miterlimit="10" vector-effect="non-scaling-stroke"/><line x1="1995" x2="-231" y1="871.5" y2="871.5" fill="none" stroke="#000" stroke-miterlimit="10" vector-effect="non-scaling-stroke"/><line x1="1995" x2="-231" y1="903.5" y2="903.5" fill="none" stroke="#000" stroke-miterlimit="10" vector-effect="non-scaling-stroke"/><line x1="1995" x2="-231" y1="935.5" y2="935.5" fill="none" stroke="#000" stroke-miterlimit="10" vector-effect="non-scaling-stroke"/><line x1="1995" x2="-231" y1="967.5" y2="967.5" fill="none" stroke="#000" stroke-miterlimit="10" vector-effect="non-scaling-stroke"/><line x1="1995" x2="-231" y1="999.5" y2="999.5" fill="none" stroke="#000" stroke-miterlimit="10" vector-effect="non-scaling-stroke"/><line x1="1995" x2="-231" y1="1031.5" y2="1031.5" fill="none" stroke="#000" stroke-miterlimit="10" vector-effect="non-scaling-stroke"/><line x1="1995" x2="-231" y1="1063.5" y2="1063.5" fill="none" stroke="#000" stroke-miterlimit="10" vector-effect="non-scaling-stroke"/><line x1="1995" x2="-231" y1="1095.5" y2="1095.5" fill="none" stroke="#000" stroke-miterlimit="10" vector-effect="non-scaling-stroke"/><line x1="1995" x2="-231" y1="1127.5" y2="1127.5" fill="none" stroke="#000" stroke-miterlimit="10" vector-effect="non-scaling-stroke"/><line x1="1995" x2="-231" y1="1159.5" y2="1159.5" fill="none" stroke="#000" stroke-miterlimit="10" vector-effect="non-scaling-stroke"/><line x1="1995" x2="-231" y1="1191.5" y2="1191.5" fill="none" stroke="#000" stroke-miterlimit="10" vector-effect="non-scaling-stroke"/><line x1="1995" x2="-231" y1="1223.5" y2="1223.5" fill="none" stroke="#000" stroke-miterlimit="10" vector-effect="non-scaling-stroke"/></g></g></svg>