<svg xmlns="http://www.w3.org/2000/svg" xmlns:xlink="http://www.w3.org/1999/xlink" id="Layer_1" width="105" height="69" x="0" y="0" enable-background="new 0 0 105 69" version="1.1" viewBox="0 0 105 69" xml:space="preserve"><g><g><line x1="87.743" x2="96.372" y1="51.748" y2="60.377" fill="none" stroke="#D17D94" stroke-miterlimit="10" stroke-width="1.5"/><line x1="96.372" x2="87.743" y1="51.748" y2="60.377" fill="none" stroke="#D17D94" stroke-miterlimit="10" stroke-width="1.5"/></g><polygon fill="none" stroke="#778080" stroke-miterlimit="10" points="98.559 48.867 98.559 45.562 95.16 45.562 84.863 45.562 81.559 45.562 81.559 48.867 81.559 59.35 81.559 62.562 84.863 62.562 95.16 62.562 98.559 62.562 98.559 59.35" display="none"/><g><path fill="none" stroke="#3E4544" stroke-miterlimit="10" d="M1.734,32.467H3.29c6.212,0,11.294,5.084,11.294,11.295v19.119"/><path fill="none" stroke="#3E4544" stroke-miterlimit="10" d="M1.511,11.412c5.026,0,9.1,4.074,9.1,9.1c0,5.026-4.073,9.1-9.1,9.1"/></g><polyline fill="none" stroke="#D17D94" stroke-miterlimit="10" points="7.958 .417 .479 .417 .479 7.917"/><polyline fill="none" stroke="#D17D94" stroke-miterlimit="10" points=".47 61.036 .47 68.516 7.97 68.516"/><polyline fill="none" stroke="#D17D94" stroke-miterlimit="10" points="97.064 .417 104.545 .417 104.545 7.917"/><polyline fill="none" stroke="#D17D94" stroke-miterlimit="10" points="104.555 61.036 104.555 68.516 97.055 68.516"/></g></svg>