<svg xmlns="http://www.w3.org/2000/svg" xmlns:xlink="http://www.w3.org/1999/xlink" id="Layer_1" width="105" height="69" x="0" y="0" enable-background="new 0 0 105 69" version="1.1" viewBox="0 0 105 69" xml:space="preserve"><path fill="none" stroke="#3E4544" stroke-miterlimit="10" d="M14.399,62.9V43.781c0-6.211,5.083-11.295,11.295-11.295h3.529	c6.212,0,11.294,5.084,11.294,11.295V62.9"/><circle cx="28.458" cy="20.509" r="9.099" fill="none" stroke="#3E4544" stroke-miterlimit="10"/><g opacity=".65"><path fill="none" stroke="#3E4544" stroke-miterlimit="10" d="M29.5,42.469h5.051v3.051c0,1.123-0.92,2.043-2.042,2.043h-0.966 c-1.124,0-2.043-0.92-2.043-2.043V42.469z"/><line x1="32.516" x2="32.516" y1="43.896" y2="40.143" fill="none" stroke="#3E4544" stroke-miterlimit="10"/></g><path fill="none" stroke="#3E4544" stroke-miterlimit="10" d="M40.518,62.9V43.781c0-6.211,5.082-11.295,11.294-11.295h3.395	c6.212,0,11.294,5.084,11.294,11.295V62.9"/><circle cx="52.509" cy="20.509" r="9.099" fill="none" stroke="#3E4544" stroke-miterlimit="10"/><g opacity=".65"><polyline fill="none" stroke="#3E4544" stroke-miterlimit="10" points="48.256 33.437 53.605 41.148 53.605 62.9"/><circle cx="56.984" cy="46.031" r="1.05" fill="none" stroke="#3E4544" stroke-miterlimit="10"/><circle cx="57.016" cy="53.016" r="1.05" fill="none" stroke="#3E4544" stroke-miterlimit="10"/><circle cx="57.016" cy="60.015" r="1.05" fill="none" stroke="#3E4544" stroke-miterlimit="10"/><line x1="53.605" x2="58.762" y1="41.148" y2="33.334" fill="none" stroke="#3E4544" stroke-miterlimit="10"/></g><g><g><line x1="87.743" x2="96.372" y1="51.748" y2="60.377" fill="none" stroke="#D17D94" stroke-miterlimit="10" stroke-width="1.5"/><line x1="96.372" x2="87.743" y1="51.748" y2="60.377" fill="none" stroke="#D17D94" stroke-miterlimit="10" stroke-width="1.5"/></g><polygon fill="none" stroke="#778080" stroke-miterlimit="10" points="98.559 48.867 98.559 45.562 95.16 45.562 84.863 45.562 81.559 45.562 81.559 48.867 81.559 59.35 81.559 62.562 84.863 62.562 95.16 62.562 98.559 62.562 98.559 59.35" display="none"/><g display="none"><path fill="none" stroke="#3E4544" stroke-miterlimit="10" d="M1.734,32.467h1.555 c6.213,0,11.295,5.084,11.295,11.295v19.119" display="inline"/><path fill="none" stroke="#3E4544" stroke-miterlimit="10" d="M1.511,11.412c5.026,0,9.1,4.074,9.1,9.1 c0,5.026-4.073,9.1-9.1,9.1" display="inline"/></g><polyline fill="none" stroke="#D17D94" stroke-miterlimit="10" points="7.959 .417 .479 .417 .479 7.917"/><polyline fill="none" stroke="#D17D94" stroke-miterlimit="10" points=".471 61.036 .471 68.516 7.971 68.516"/><polyline fill="none" stroke="#D17D94" stroke-miterlimit="10" points="97.064 .417 104.545 .417 104.545 7.917"/><polyline fill="none" stroke="#D17D94" stroke-miterlimit="10" points="104.555 61.036 104.555 68.516 97.055 68.516"/></g></svg>